  0
SECTION
  2
HEADER
  9
$ACADVER
  1
AC1014
  9
$HANDSEED
  5
FFFF
  9
$MEASUREMENT
 70
     1
  0
ENDSEC
  0
SECTION
  2
TABLES
  0
TABLE
  2
VPORT
  5
8
330
0
100
AcDbSymbolTable
 70
     4
  0
VPORT
  5
2E
330
8
100
AcDbSymbolTableRecord
100
AcDbViewportTableRecord
  2
*ACTIVE
 70
     0
 10
0.0
 20
0.0
 11
1.0
 21
1.0
 12
210.0
 22
148.5
 13
0.0
 23
0.0
 14
10.0
 24
10.0
 15
10.0
 25
10.0
 16
0.0
 26
0.0
 36
1.0
 17
0.0
 27
0.0
 37
0.0
 40
341.0
 41
1.24
 42
50.0
 43
0.0
 44
0.0
 50
0.0
 51
0.0
 71
     0
 72
   100
 73
     1
 74
     3
 75
     0
 76
     0
 77
     0
 78
     0
  0
ENDTAB
  0
TABLE
  2
LTYPE
  5
5
330
0
100
AcDbSymbolTable
 70
     1
  0
LTYPE
  5
14
330
5
100
AcDbSymbolTableRecord
100
AcDbLinetypeTableRecord
  2
BYBLOCK
 70
     0
  3

 72
    65
 73
     0
 40
0.0
  0
LTYPE
  5
15
330
5
100
AcDbSymbolTableRecord
100
AcDbLinetypeTableRecord
  2
BYLAYER
 70
     0
  3

 72
    65
 73
     0
 40
0.0
  0
LTYPE
  5
16
330
5
100
AcDbSymbolTableRecord
100
AcDbLinetypeTableRecord
  2
CONTINUOUS
 70
     0
  3
Solid line
 72
    65
 73
     0
 40
0.0
  0
ENDTAB
  0
TABLE
  2
LAYER
  5
2
100
AcDbSymbolTable
 70
2
  0
LAYER
  5
50
100
AcDbSymbolTableRecord
100
AcDbLayerTableRecord
  2
0
 70
0
  6
CONTINUOUS
  0
LAYER
  5
51
100
AcDbSymbolTableRecord
100
AcDbLayerTableRecord
  2
Layer_1
 70
0
  6
CONTINUOUS
  0
ENDTAB
  0
TABLE
  2
STYLE
  5
3
330
0
100
AcDbSymbolTable
 70
     1
  0
STYLE
  5
11
330
3
100
AcDbSymbolTableRecord
100
AcDbTextStyleTableRecord
  2
STANDARD
 70
     0
 40
0.0
 41
1.0
 50
0.0
 71
     0
 42
2.5
  3
txt
  4

  0
ENDTAB
  0
TABLE
  2
VIEW
  5
6
330
0
100
AcDbSymbolTable
 70
     0
  0
ENDTAB
  0
TABLE
  2
UCS
  5
7
330
0
100
AcDbSymbolTable
 70
     0
  0
ENDTAB
  0
TABLE
  2
APPID
  5
9
330
0
100
AcDbSymbolTable
 70
     2
  0
APPID
  5
12
330
9
100
AcDbSymbolTableRecord
100
AcDbRegAppTableRecord
  2
ACAD
 70
     0
  0
ENDTAB
  0
TABLE
  2
DIMSTYLE
  5
A
330
0
100
AcDbSymbolTable
 70
     1
  0
DIMSTYLE
105
27
330
A
100
AcDbSymbolTableRecord
100
AcDbDimStyleTableRecord
  2
ISO-25
 70
     0
  3

  4

  5

  6

  7

 40
1.0
 41
2.5
 42
0.625
 43
3.75
 44
1.25
 45
0.0
 46
0.0
 47
0.0
 48
0.0
140
2.5
141
2.5
142
0.0
143
0.03937007874016
144
1.0
145
0.0
146
1.0
147
0.625
 71
     0
 72
     0
 73
     0
 74
     0
 75
     0
 76
     0
 77
     1
 78
     8
170
     0
171
     3
172
     1
173
     0
174
     0
175
     0
176
     0
177
     0
178
     0
270
     2
271
     2
272
     2
273
     2
274
     3
340
11
275
     0
280
     0
281
     0
282
     0
283
     0
284
     8
285
     0
286
     0
287
     3
288
     0
  0
ENDTAB
  0
TABLE
  2
BLOCK_RECORD
  5
1
330
0
100
AcDbSymbolTable
 70
     1
  0
BLOCK_RECORD
  5
1F
330
1
100
AcDbSymbolTableRecord
100
AcDbBlockTableRecord
  2
*MODEL_SPACE
  0
BLOCK_RECORD
  5
1B
330
1
100
AcDbSymbolTableRecord
100
AcDbBlockTableRecord
  2
*PAPER_SPACE
  0
ENDTAB
  0
ENDSEC
  0
SECTION
  2
BLOCKS
  0
BLOCK
  5
20
330
1F
100
AcDbEntity
  8
0
100
AcDbBlockBegin
  2
*MODEL_SPACE
 70
     0
 10
0.0
 20
0.0
 30
0.0
  3
*MODEL_SPACE
  1

  0
ENDBLK
  5
21
330
1F
100
AcDbEntity
  8
0
100
AcDbBlockEnd
  0
BLOCK
  5
1C
330
1B
100
AcDbEntity
 67
     1
  8
0
100
AcDbBlockBegin
  2
*PAPER_SPACE
  1

  0
ENDBLK
  5
1D
330
1B
100
AcDbEntity
 67
     1
  8
0
100
AcDbBlockEnd
  0
ENDSEC
  0
SECTION
  2
ENTITIES
  0
LWPOLYLINE
  5
100
100
AcDbEntity
  8
Layer_1
 62
7
100
AcDbPolyline
 90
76
 70
1
 10
18.142857
 20
7.470250
 30
0.0
 10
22.867559
 20
13.895840
 30
0.0
 10
27.592261
 20
20.321440
 30
0.0
 10
32.316964
 20
26.747030
 30
0.0
 10
37.041666
 20
33.172620
 30
0.0
 10
34.633207
 20
37.555860
 30
0.0
 10
22.889570
 20
38.433740
 30
0.0
 10
9.906505
 20
37.626010
 30
0.0
 10
3.779762
 20
36.952380
 30
0.0
 10
7.794866
 20
38.941960
 30
0.0
 10
16.880556
 20
44.210820
 30
0.0
 10
26.597396
 20
51.709080
 30
0.0
 10
32.505951
 20
60.386910
 30
0.0
 10
32.026381
 20
70.801970
 30
0.0
 10
27.711942
 20
82.201950
 30
0.0
 10
22.770698
 20
91.387860
 30
0.0
 10
20.410714
 20
95.160720
 30
0.0
 10
23.723456
 20
92.378960
 30
0.0
 10
31.701537
 20
86.671760
 30
0.0
 10
41.404742
 20
81.996240
 30
0.0
 10
49.892857
 20
82.309530
 30
0.0
 10
56.067471
 20
92.854140
 30
0.0
 10
56.746317
 20
108.334470
 30
0.0
 10
54.943373
 20
122.330600
 30
0.0
 10
53.672618
 20
128.422620
 30
0.0
 10
58.744937
 20
121.358930
 30
0.0
 10
63.786038
 20
114.411990
 30
0.0
 10
69.251085
 20
110.123640
 30
0.0
 10
75.595238
 20
111.035720
 30
0.0
 10
81.416253
 20
116.218930
 30
0.0
 10
86.418117
 20
123.337780
 30
0.0
 10
91.489195
 20
132.054120
 30
0.0
 10
97.517853
 20
142.029770
 30
0.0
 10
95.270307
 20
137.937560
 30
0.0
 10
90.957434
 20
127.967400
 30
0.0
 10
88.223878
 20
115.579020
 30
0.0
 10
90.714284
 20
104.232140
 30
0.0
 10
101.328080
 20
97.769010
 30
0.0
 10
116.527740
 20
96.030290
 30
0.0
 10
130.159960
 20
96.691610
 30
0.0
 10
136.071430
 20
97.428580
 30
0.0
 10
130.596070
 20
96.767300
 30
0.0
 10
118.005690
 20
94.342250
 30
0.0
 10
104.053830
 20
89.491620
 30
0.0
 10
94.494047
 20
81.553580
 30
0.0
 10
92.817673
 20
70.084260
 30
0.0
 10
95.733764
 20
56.617560
 30
0.0
 10
99.919878
 20
45.413510
 30
0.0
 10
102.053570
 20
40.732150
 30
0.0
 10
99.992034
 20
44.172830
 30
0.0
 10
94.855249
 20
51.419200
 30
0.0
 10
88.214946
 20
57.857760
 30
0.0
 10
81.642856
 20
58.875000
 30
0.0
 10
77.290419
 20
49.414240
 30
0.0
 10
79.957886
 20
35.178400
 30
0.0
 10
84.979742
 20
22.207530
 30
0.0
 10
87.690475
 20
16.541670
 30
0.0
 10
84.765397
 20
20.443450
 30
0.0
 10
77.496417
 20
28.710320
 30
0.0
 10
68.142918
 20
36.184520
 30
0.0
 10
58.964284
 20
37.708340
 30
0.0
 10
54.785477
 20
32.535840
 30
0.0
 10
53.338909
 20
24.102130
 30
0.0
 10
53.382109
 20
16.234920
 30
0.0
 10
53.672614
 20
12.761910
 30
0.0
 10
52.718096
 20
15.259410
 30
0.0
 10
50.119296
 20
20.744830
 30
0.0
 10
46.273346
 20
26.207540
 30
0.0
 10
41.577377
 20
28.636910
 30
0.0
 10
34.319127
 20
24.540360
 30
0.0
 10
28.574012
 20
15.714120
 30
0.0
 10
24.794865
 20
6.923670
 30
0.0
 10
23.434520
 20
2.934520
 30
0.0
 10
22.111603
 20
4.068450
 30
0.0
 10
20.788687
 20
5.202390
 30
0.0
 10
19.465770
 20
6.336320
 30
0.0
  0
ENDSEC
  0
SECTION
  2
OBJECTS
  0
DICTIONARY
  5
C
330
0
100
AcDbDictionary
  3
ACAD_GROUP
350
D
  3
ACAD_MLINESTYLE
350
17
  0
DICTIONARY
  5
D
330
C
100
AcDbDictionary
  0
DICTIONARY
  5
1A
330
C
100
AcDbDictionary
  0
DICTIONARY
  5
17
330
C
100
AcDbDictionary
  3
STANDARD
350
18
  0
DICTIONARY
  5
19
330
C
100
AcDbDictionary
  0
ENDSEC
  0
EOF
