  0
SECTION
  2
HEADER
  9
$ACADVER
  1
AC1014
  9
$HANDSEED
  5
FFFF
  9
$MEASUREMENT
 70
     1
  0
ENDSEC
  0
SECTION
  2
TABLES
  0
TABLE
  2
VPORT
  5
8
330
0
100
AcDbSymbolTable
 70
     4
  0
VPORT
  5
2E
330
8
100
AcDbSymbolTableRecord
100
AcDbViewportTableRecord
  2
*ACTIVE
 70
     0
 10
0.0
 20
0.0
 11
1.0
 21
1.0
 12
210.0
 22
148.5
 13
0.0
 23
0.0
 14
10.0
 24
10.0
 15
10.0
 25
10.0
 16
0.0
 26
0.0
 36
1.0
 17
0.0
 27
0.0
 37
0.0
 40
341.0
 41
1.24
 42
50.0
 43
0.0
 44
0.0
 50
0.0
 51
0.0
 71
     0
 72
   100
 73
     1
 74
     3
 75
     0
 76
     0
 77
     0
 78
     0
  0
ENDTAB
  0
TABLE
  2
LTYPE
  5
5
330
0
100
AcDbSymbolTable
 70
     1
  0
LTYPE
  5
14
330
5
100
AcDbSymbolTableRecord
100
AcDbLinetypeTableRecord
  2
BYBLOCK
 70
     0
  3

 72
    65
 73
     0
 40
0.0
  0
LTYPE
  5
15
330
5
100
AcDbSymbolTableRecord
100
AcDbLinetypeTableRecord
  2
BYLAYER
 70
     0
  3

 72
    65
 73
     0
 40
0.0
  0
LTYPE
  5
16
330
5
100
AcDbSymbolTableRecord
100
AcDbLinetypeTableRecord
  2
CONTINUOUS
 70
     0
  3
Solid line
 72
    65
 73
     0
 40
0.0
  0
ENDTAB
  0
TABLE
  2
LAYER
  5
2
100
AcDbSymbolTable
 70
2
  0
LAYER
  5
50
100
AcDbSymbolTableRecord
100
AcDbLayerTableRecord
  2
0
 70
0
  6
CONTINUOUS
  0
LAYER
  5
51
100
AcDbSymbolTableRecord
100
AcDbLayerTableRecord
  2
Layer_1
 70
0
  6
CONTINUOUS
  0
ENDTAB
  0
TABLE
  2
STYLE
  5
3
330
0
100
AcDbSymbolTable
 70
     1
  0
STYLE
  5
11
330
3
100
AcDbSymbolTableRecord
100
AcDbTextStyleTableRecord
  2
STANDARD
 70
     0
 40
0.0
 41
1.0
 50
0.0
 71
     0
 42
2.5
  3
txt
  4

  0
ENDTAB
  0
TABLE
  2
VIEW
  5
6
330
0
100
AcDbSymbolTable
 70
     0
  0
ENDTAB
  0
TABLE
  2
UCS
  5
7
330
0
100
AcDbSymbolTable
 70
     0
  0
ENDTAB
  0
TABLE
  2
APPID
  5
9
330
0
100
AcDbSymbolTable
 70
     2
  0
APPID
  5
12
330
9
100
AcDbSymbolTableRecord
100
AcDbRegAppTableRecord
  2
ACAD
 70
     0
  0
ENDTAB
  0
TABLE
  2
DIMSTYLE
  5
A
330
0
100
AcDbSymbolTable
 70
     1
  0
DIMSTYLE
105
27
330
A
100
AcDbSymbolTableRecord
100
AcDbDimStyleTableRecord
  2
ISO-25
 70
     0
  3

  4

  5

  6

  7

 40
1.0
 41
2.5
 42
0.625
 43
3.75
 44
1.25
 45
0.0
 46
0.0
 47
0.0
 48
0.0
140
2.5
141
2.5
142
0.0
143
0.03937007874016
144
1.0
145
0.0
146
1.0
147
0.625
 71
     0
 72
     0
 73
     0
 74
     0
 75
     0
 76
     0
 77
     1
 78
     8
170
     0
171
     3
172
     1
173
     0
174
     0
175
     0
176
     0
177
     0
178
     0
270
     2
271
     2
272
     2
273
     2
274
     3
340
11
275
     0
280
     0
281
     0
282
     0
283
     0
284
     8
285
     0
286
     0
287
     3
288
     0
  0
ENDTAB
  0
TABLE
  2
BLOCK_RECORD
  5
1
330
0
100
AcDbSymbolTable
 70
     1
  0
BLOCK_RECORD
  5
1F
330
1
100
AcDbSymbolTableRecord
100
AcDbBlockTableRecord
  2
*MODEL_SPACE
  0
BLOCK_RECORD
  5
1B
330
1
100
AcDbSymbolTableRecord
100
AcDbBlockTableRecord
  2
*PAPER_SPACE
  0
ENDTAB
  0
ENDSEC
  0
SECTION
  2
BLOCKS
  0
BLOCK
  5
20
330
1F
100
AcDbEntity
  8
0
100
AcDbBlockBegin
  2
*MODEL_SPACE
 70
     0
 10
0.0
 20
0.0
 30
0.0
  3
*MODEL_SPACE
  1

  0
ENDBLK
  5
21
330
1F
100
AcDbEntity
  8
0
100
AcDbBlockEnd
  0
BLOCK
  5
1C
330
1B
100
AcDbEntity
 67
     1
  8
0
100
AcDbBlockBegin
  2
*PAPER_SPACE
  1

  0
ENDBLK
  5
1D
330
1B
100
AcDbEntity
 67
     1
  8
0
100
AcDbBlockEnd
  0
ENDSEC
  0
SECTION
  2
ENTITIES
  0
LWPOLYLINE
  5
100
100
AcDbEntity
  8
Layer_1
 62
7
100
AcDbPolyline
 90
130
 70
1
 10
4.810852
 20
26.501760
 30
0.0
 10
8.670716
 20
25.469550
 30
0.0
 10
10.326474
 20
23.460760
 30
0.0
 10
10.293494
 20
20.567050
 30
0.0
 10
9.087160
 20
16.880060
 30
0.0
 10
8.467801
 20
15.552910
 30
0.0
 10
7.699658
 20
13.934500
 30
0.0
 10
7.090725
 20
12.252060
 30
0.0
 10
6.949004
 20
10.732860
 30
0.0
 10
7.851919
 20
9.910280
 30
0.0
 10
9.726133
 20
9.383800
 30
0.0
 10
11.748582
 20
9.064130
 30
0.0
 10
13.096203
 20
8.861970
 30
0.0
 10
14.876218
 20
8.391730
 30
0.0
 10
16.683509
 20
7.744570
 30
0.0
 10
18.367583
 20
6.854300
 30
0.0
 10
19.777941
 20
5.654740
 30
0.0
 10
20.712502
 20
4.068810
 30
0.0
 10
21.438170
 20
2.041360
 30
0.0
 10
22.202348
 20
-0.117100
 30
0.0
 10
23.252444
 20
-2.096070
 30
0.0
 10
23.645857
 20
-2.570810
 30
0.0
 10
24.077117
 20
-3.016670
 30
0.0
 10
24.496944
 20
-3.469950
 30
0.0
 10
24.856062
 20
-3.966960
 30
0.0
 10
25.502332
 20
-5.369440
 30
0.0
 10
26.061327
 20
-7.133430
 30
0.0
 10
26.418593
 20
-8.917810
 30
0.0
 10
26.459683
 20
-10.381420
 30
0.0
 10
26.268090
 20
-11.030910
 30
0.0
 10
25.926381
 20
-11.631710
 30
0.0
 10
25.517237
 20
-12.208720
 30
0.0
 10
25.123336
 20
-12.786850
 30
0.0
 10
24.022798
 20
-14.569560
 30
0.0
 10
23.047846
 20
-15.563670
 30
0.0
 10
21.573841
 20
-15.971180
 30
0.0
 10
18.976137
 20
-15.994080
 30
0.0
 10
18.080056
 20
-15.761900
 30
0.0
 10
16.340837
 20
-15.291840
 30
0.0
 10
14.582919
 20
-14.905620
 30
0.0
 10
13.630747
 20
-14.925020
 30
0.0
 10
13.376737
 20
-16.057540
 30
0.0
 10
13.404957
 20
-17.870910
 30
0.0
 10
13.546073
 20
-19.614500
 30
0.0
 10
13.630743
 20
-20.537680
 30
0.0
 10
13.402174
 20
-23.422880
 30
0.0
 10
12.553505
 20
-25.934130
 30
0.0
 10
10.840288
 20
-27.818510
 30
0.0
 10
8.018083
 20
-28.823050
 30
0.0
 10
6.525001
 20
-29.021060
 30
0.0
 10
5.004047
 20
-29.126370
 30
0.0
 10
3.520128
 20
-29.013200
 30
0.0
 10
2.138153
 20
-28.555770
 30
0.0
 10
0.388967
 20
-27.112510
 30
0.0
 10
-1.540241
 20
-24.751920
 30
0.0
 10
-3.233871
 20
-22.088270
 30
0.0
 10
-4.276316
 20
-19.735890
 30
0.0
 10
-4.647396
 20
-17.188120
 30
0.0
 10
-4.694590
 20
-14.813030
 30
0.0
 10
-4.933551
 20
-13.228930
 30
0.0
 10
-5.879933
 20
-13.054150
 30
0.0
 10
-7.159811
 20
-13.814020
 30
0.0
 10
-9.154431
 20
-15.066890
 30
0.0
 10
-11.182234
 20
-16.315650
 30
0.0
 10
-12.561671
 20
-17.063200
 30
0.0
 10
-14.425608
 20
-17.480190
 30
0.0
 10
-16.532725
 20
-17.530390
 30
0.0
 10
-18.658834
 20
-17.413800
 30
0.0
 10
-20.579756
 20
-17.330500
 30
0.0
 10
-21.905368
 20
-17.356000
 30
0.0
 10
-23.533356
 20
-17.265000
 30
0.0
 10
-25.020897
 20
-16.805820
 30
0.0
 10
-25.925147
 20
-15.726940
 30
0.0
 10
-26.280346
 20
-13.939180
 30
0.0
 10
-26.464392
 20
-11.560980
 30
0.0
 10
-26.378812
 20
-9.194420
 30
0.0
 10
-25.925144
 20
-7.441590
 30
0.0
 10
-23.720975
 20
-5.442980
 30
0.0
 10
-20.707086
 20
-4.103940
 30
0.0
 10
-18.164068
 20
-2.763300
 30
0.0
 10
-17.372519
 20
-0.759860
 30
0.0
 10
-18.217296
 20
1.504200
 30
0.0
 10
-19.487260
 20
3.318140
 30
0.0
 10
-20.835749
 20
4.963970
 30
0.0
 10
-21.916101
 20
6.723700
 30
0.0
 10
-22.507854
 20
8.541860
 30
0.0
 10
-23.001598
 20
10.822450
 30
0.0
 10
-23.353498
 20
13.124990
 30
0.0
 10
-23.519718
 20
15.009040
 30
0.0
 10
-23.525218
 20
15.682520
 30
0.0
 10
-23.486278
 20
16.356700
 30
0.0
 10
-23.397248
 20
17.025230
 30
0.0
 10
-23.252455
 20
17.681760
 30
0.0
 10
-22.919249
 20
18.773320
 30
0.0
 10
-22.527111
 20
19.846440
 30
0.0
 10
-22.096740
 20
20.906290
 30
0.0
 10
-21.648838
 20
21.958060
 30
0.0
 10
-21.503730
 20
22.338070
 30
0.0
 10
-21.348541
 20
22.724670
 30
0.0
 10
-21.143046
 20
23.062060
 30
0.0
 10
-20.847030
 20
23.294420
 30
0.0
 10
-20.180711
 20
23.361020
 30
0.0
 10
-19.042876
 20
23.320420
 30
0.0
 10
-17.871678
 20
23.200000
 30
0.0
 10
-17.105257
 20
23.027130
 30
0.0
 10
-16.245745
 20
22.524460
 30
0.0
 10
-15.458380
 20
21.900960
 30
0.0
 10
-14.692645
 20
21.239190
 30
0.0
 10
-13.898022
 20
20.621690
 30
0.0
 10
-12.388858
 20
19.636670
 30
0.0
 10
-10.839780
 20
18.639710
 30
0.0
 10
-9.349842
 20
17.564670
 30
0.0
 10
-8.018093
 20
16.345390
 30
0.0
 10
-7.042406
 20
15.174280
 30
0.0
 10
-6.240023
 20
14.150690
 30
0.0
 10
-5.591684
 20
13.556280
 30
0.0
 10
-5.078128
 20
13.672700
 30
0.0
 10
-3.991035
 20
15.690380
 30
0.0
 10
-3.068158
 20
18.404160
 30
0.0
 10
-2.281641
 20
21.224450
 30
0.0
 10
-1.603625
 20
23.561660
 30
0.0
 10
-1.506143
 20
23.716550
 30
0.0
 10
-1.358889
 20
23.839950
 30
0.0
 10
-1.200377
 20
23.957840
 30
0.0
 10
-1.069085
 20
24.096200
 30
0.0
 10
-0.036161
 20
25.870930
 30
0.0
 10
1.162666
 20
26.615660
 30
0.0
 10
2.715599
 20
26.702060
 30
0.0
 10
4.810844
 20
26.501660
 30
0.0
 10
4.810845
 20
26.501690
 30
0.0
  0
ENDSEC
  0
SECTION
  2
OBJECTS
  0
DICTIONARY
  5
C
330
0
100
AcDbDictionary
  3
ACAD_GROUP
350
D
  3
ACAD_MLINESTYLE
350
17
  0
DICTIONARY
  5
D
330
C
100
AcDbDictionary
  0
DICTIONARY
  5
1A
330
C
100
AcDbDictionary
  0
DICTIONARY
  5
17
330
C
100
AcDbDictionary
  3
STANDARD
350
18
  0
DICTIONARY
  5
19
330
C
100
AcDbDictionary
  0
ENDSEC
  0
EOF
